/* XPM */
static char *test[] = {
"4 4 2 1",
" 	c #000000",
".	c #FFFFFF",
" . .",
" . .",
" . .",
" . ."
};