/* XPM */
static char *my_texture[] = {
"16 16 2 1",
" 	c#210303",
".	c#ffffff",
" . . . . . . . .",
". . . . . . . . ",
" . . . . . . . .",
". . . . . . . . ",
" . . . . . . . .",
". . . . . . . . ",
" . . . . . . . .",
". . . . . . . . ",
" . . . . . . . .",
". . . . . . . . ",
" . . . . . . . .",
". . . . . . . . ",
" . . . . . . . .",
". . . . . . . . ",
" . . . . . . . .",
". . . . . . . . "};