/* XPM */
static char * my_texture_xpm[] = {
"16 16 2 1",
" 	c #FF0000",
".	c #00FF00",
" . . . . . . . .",
". . . . . . . . ",
" . . . . . . . .",
". . . . . . . . ",
" . . . . . . . .",
". . . . . . . . ",
" . . . . . . . .",
". . . . . . . . ",
" . . . . . . . .",
". . . . . . . . ",
" . . . . . . . .",
". . . . . . . . ",
" . . . . . . . .",
". . . . . . . . ",
" . . . . . . . .",
". . . . . . . . "
};